<?xml version="1.0" standalone="no"?>
<!DOCTYPE svg PUBLIC "-//W3C//DTD SVG 20010904//EN"
 "http://www.w3.org/TR/2001/REC-SVG-20010904/DTD/svg10.dtd">
<svg version="1.0" xmlns="http://www.w3.org/2000/svg"
 width="980.000000pt" height="980.000000pt" viewBox="0 0 980.000000 980.000000"
 preserveAspectRatio="xMidYMid meet">
<metadata>
Created by potrace 1.16, written by Peter Selinger 2001-2019
</metadata>
<g transform="translate(0.000000,980.000000) scale(0.100000,-0.100000)"
fill="#000000" stroke="none">
<path d="M0 4900 l0 -4900 4900 0 4900 0 0 4900 0 4900 -4900 0 -4900 0 0
-4900z m3188 1205 c38 -66 126 -218 195 -338 l127 -219 2 -539 3 -539 137 228
c76 125 147 242 158 260 l21 34 91 -159 c50 -87 112 -195 139 -241 27 -45 49
-88 49 -93 0 -6 -77 -145 -171 -308 -94 -163 -215 -371 -268 -463 l-96 -168
-272 0 -273 0 -2 782 -3 782 -259 -449 c-143 -248 -323 -560 -401 -695 -78
-135 -164 -284 -191 -332 l-49 -87 -283 -1 c-156 0 -281 3 -279 8 5 8 582
1008 780 1352 249 431 305 527 532 922 126 219 233 394 237 390 3 -4 38 -61
76 -127z m2082 -110 l0 -245 -60 0 -60 0 0 -790 0 -790 50 0 c28 0 50 -2 50
-4 0 -5 -311 -545 -337 -585 l-16 -24 -14 27 c-8 16 -86 152 -174 303 -87 151
-159 276 -159 279 0 2 23 4 50 4 l50 0 0 790 0 790 -60 0 -60 0 0 245 0 245
370 0 370 0 0 -245z m1568 -3 l141 -243 -211 -362 c-116 -199 -215 -372 -221
-384 -8 -19 0 -39 53 -130 34 -59 63 -109 64 -109 2 -3 300 26 301 29 1 1 64
111 141 244 76 134 142 239 145 235 4 -4 69 -114 144 -245 l137 -238 -67 -117
c-37 -64 -98 -169 -136 -233 l-68 -116 -63 -6 c-35 -4 -103 -10 -151 -13 -48
-4 -90 -10 -92 -14 -4 -6 33 -72 137 -246 3 -5 -56 -115 -131 -244 l-137 -235
-286 -3 -287 -2 120 207 c66 115 127 218 135 230 8 12 14 27 14 33 0 17 -112
201 -125 206 -12 5 -305 -22 -309 -28 -1 -2 -85 -148 -187 -325 l-184 -322
-282 -1 c-156 0 -283 3 -283 6 0 6 56 103 414 724 119 206 220 378 224 382 5
5 80 15 167 23 88 9 160 17 162 19 2 1 -31 59 -72 129 -41 69 -75 131 -75 138
0 6 147 267 326 578 365 633 395 683 399 679 2 -2 66 -112 143 -246z"/>
</g>
</svg>
